<svg width="50" height="38" viewBox="0 0 50 38" fill="none" xmlns="http://www.w3.org/2000/svg">
<path d="M44.04 37.648C43.1227 37.648 42.2373 37.536 41.384 37.312C40.5413 37.0773 39.8533 36.7787 39.32 36.416L40.36 34.08C40.8613 34.4 41.4373 34.6667 42.088 34.88C42.7493 35.0827 43.4053 35.184 44.056 35.184C44.4933 35.184 44.8453 35.1467 45.112 35.072C45.3787 34.9867 45.5707 34.88 45.688 34.752C45.816 34.6133 45.88 34.4533 45.88 34.272C45.88 34.016 45.7627 33.8133 45.528 33.664C45.2933 33.5147 44.9893 33.392 44.616 33.296C44.2427 33.2 43.8267 33.104 43.368 33.008C42.92 32.912 42.4667 32.7893 42.008 32.64C41.56 32.4907 41.1493 32.2987 40.776 32.064C40.4027 31.8187 40.0987 31.504 39.864 31.12C39.6293 30.7253 39.512 30.2293 39.512 29.632C39.512 28.96 39.6933 28.352 40.056 27.808C40.4293 27.264 40.984 26.8267 41.72 26.496C42.456 26.1653 43.3733 26 44.472 26C45.208 26 45.928 26.0853 46.632 26.256C47.3467 26.416 47.9813 26.656 48.536 26.976L47.56 29.328C47.0267 29.04 46.4987 28.8267 45.976 28.688C45.4533 28.5387 44.9467 28.464 44.456 28.464C44.0187 28.464 43.6667 28.512 43.4 28.608C43.1333 28.6933 42.9413 28.8107 42.824 28.96C42.7067 29.1093 42.648 29.28 42.648 29.472C42.648 29.7173 42.76 29.9147 42.984 30.064C43.2187 30.2027 43.5227 30.32 43.896 30.416C44.28 30.5013 44.696 30.592 45.144 30.688C45.6027 30.784 46.056 30.9067 46.504 31.056C46.9627 31.1947 47.3787 31.3867 47.752 31.632C48.1253 31.8667 48.424 32.1813 48.648 32.576C48.8827 32.96 49 33.4453 49 34.032C49 34.6827 48.8133 35.2853 48.44 35.84C48.0773 36.384 47.528 36.8213 46.792 37.152C46.0667 37.4827 45.1493 37.648 44.04 37.648Z" fill="#39C796"/>
<path d="M42.232 17.336H47.432V19.704H42.232V17.336ZM42.456 21.752H48.312V24.2H39.32V13H48.104V15.448H42.456V21.752Z" fill="#D926AA"/>
<path d="M44.496 11.648C43.6107 11.648 42.7893 11.5093 42.032 11.232C41.2747 10.944 40.6187 10.5387 40.064 10.016C39.52 9.49333 39.0933 8.88 38.784 8.176C38.4747 7.46133 38.32 6.67733 38.32 5.824C38.32 4.97067 38.4747 4.192 38.784 3.488C39.0933 2.77333 39.5253 2.15467 40.08 1.632C40.6347 1.10933 41.2907 0.709334 42.048 0.432C42.816 0.144 43.6533 0 44.56 0C45.616 0 46.56 0.176 47.392 0.528C48.224 0.88 48.912 1.38667 49.456 2.048L47.44 3.872C47.056 3.456 46.64 3.14667 46.192 2.944C45.7547 2.73067 45.264 2.624 44.72 2.624C44.24 2.624 43.8027 2.69867 43.408 2.848C43.0133 2.99733 42.6773 3.216 42.4 3.504C42.1227 3.78133 41.904 4.11733 41.744 4.512C41.5947 4.896 41.52 5.33333 41.52 5.824C41.52 6.29333 41.5947 6.72533 41.744 7.12C41.904 7.51467 42.1227 7.856 42.4 8.144C42.6773 8.42133 43.008 8.64 43.392 8.8C43.7867 8.94933 44.2187 9.024 44.688 9.024C45.1573 9.024 45.616 8.94933 46.064 8.8C46.512 8.64 46.9653 8.37333 47.424 8L49.2 10.224C48.56 10.6827 47.8187 11.0347 46.976 11.28C46.1333 11.5253 45.3067 11.648 44.496 11.648ZM46.4 9.808V5.584H49.2V10.224L46.4 9.808Z" fill="#A472F9"/>
<path d="M0 28V11.2H3.912L10.872 22.624H8.808L15.576 11.2H19.488L19.536 28H15.168L15.12 17.848H15.864L10.8 26.344H8.688L3.48 17.848H4.392V28H0Z" fill="#E8E8E8"/>
<path d="M27.1464 28V20.896L28.2504 23.752L20.7384 11.2H25.7544L31.1784 20.296H28.2744L33.7224 11.2H38.3304L30.8424 23.752L31.8984 20.896V28H27.1464Z" fill="#E8E8E8"/>
</svg>
